<svg id="text" xmlns="http://www.w3.org/2000/svg" viewBox="0 0 533.15 264.04"><defs><style>.cls-1,.cls-2{fill:#2f5f8a;}.cls-2{stroke:#2f5f8a;}.cls-2,.cls-3,.cls-4{stroke-miterlimit:10;stroke-width:2px;}.cls-3,.cls-4{font-size:171px;stroke:#fff;font-family:UniQAIDAR_YUSUF;}.cls-3{fill:#e7aa21;}.cls-4{fill:#75a942;}.cls-5{fill:#4d4d4d;}</style></defs><title>webchin-meko-logo</title><path class="cls-1" d="M57.2 201.4c-15.3 0-28.6-5.8-39.4-17.4C6.8 172.3 1 157.8 1 141V91.4h21.7v47c0 11 2.8 20.8 8.5 28.8 6.6 9 15.3 13.5 26 13.5s19.2-4.6 25.8-13.6c5.5-7.8 8.4-17.5 8.4-28.6v-47H113v49.3a59 59 0 0 1-.8 9.7h28v21.8h-35.5a55.7 55.7 0 0 1-19.5 20.8 51.8 51.8 0 0 1-28 8z"/><path class="cls-1" d="M112 92.5V141a58.5 58.5 0 0 1-1 10.7h28.3v19.8H104a54.6 54.6 0 0 1-19.4 21 50.6 50.6 0 0 1-27.5 8q-22.5 0-38.5-17Q2 166 2 140.8V92.4h19.7v46q0 17 8.7 29.4 10.2 13.8 26.8 13.8 16.3 0 26.6-14 8.5-12 8.5-29.2v-46H112m2-2H90.3v48c0 11-2.8 20.4-8.2 28-6.3 9-14.5 13.2-25 13.2s-18.5-4.3-25-13c-5.6-8-8.4-17.4-8.4-28V90.4H0V141c0 17 5.8 31.8 17 43.7 11 11.8 24.6 17.7 40.2 17.7a52.8 52.8 0 0 0 28.5-8.3 56.6 56.6 0 0 0 19.6-20.5h36v-23.8h-28a59.3 59.3 0 0 0 .7-8.8V90.4zM266.5 172.5v-21.8h19c5.5 0 9-1.8 11-5.4 1.2-2.4 2-6.7 2-12.8v-41h21.2v40c0 9-1 15.4-3.3 19.2H349v22h-82.5z"/><path class="cls-1" d="M318.7 92.5v39q0 15.3-4.2 20.2H348v19.8h-80.5v-19.8h18q8.6 0 11.8-6 2-3.8 2-13.2v-40h19.4m2-2h-23.3v42c0 7.4-1 10.8-2 12.3-1.6 3.3-5 5-9.8 5h-20v23.7h84.3v-23.8h-32c1.8-4 2.7-10 2.7-18.2v-41z"/><path class="cls-1" d="M342.7 172.5v-21.8H360c6 0 9.8-1.7 11.5-5.2 1-2 1.3-6 1.3-12v-42h21.5V140c0 21.6-10 32.5-30 32.5h-21.6z"/><path class="cls-1" d="M393.3 92.5V140q0 31.5-29 31.5h-20.6v-19.8H360q9.7 0 12.4-5.8 1.4-3.4 1.4-12.6v-41h19.5m2-2h-23.5v43c0 7.2-.6 10.3-1.2 11.7-1.5 3.2-5 4.7-10.5 4.7h-18.3v23.8h22.6c10.2 0 18-3 23.2-8.5s7.8-14 7.8-25V90.5zM170.8 151.2q1 0 1 .7V171a.8.8 0 0 1-1 .8h-32a.8.8 0 0 1-.7-.8V152a.7.7 0 0 1 1-.8h31.7z"/><path class="cls-1" d="M170.8 173.5h-32a2.2 2.2 0 0 1-2.2-2.3V152a2.2 2.2 0 0 1 2.3-2.3h31.7a2.2 2.2 0 0 1 2.5 2.2V171a2.3 2.3 0 0 1-2.4 2.3zm-31.2-3h30.6v-17.8h-30.6v17.8z"/><path class="cls-1" d="M169 172a.8.8 0 0 1-.8-.8V152a.7.7 0 0 1 .8-.8h71v-.2q-7-6-10.6-24.6-2.5-11.7-7-16.4t-14.2-4.8a42.6 42.6 0 0 0-11.6 1.6 57.4 57.4 0 0 0-11.7 5l-8-19q15.7-8.4 36.7-8.4 17.6 0 27.4 7.8t13 25.7q4.6 25.7 12.3 33.2V172H169z"/><path class="cls-1" d="M267.8 173.5H169a2.2 2.2 0 0 1-2.3-2.3V152a2.2 2.2 0 0 1 2.3-2.3h67.6c-3.7-4.7-6.6-12.3-8.7-23-1.7-7.5-4-12.7-6.8-15.6s-7.2-4.2-13-4.2a41.4 41.4 0 0 0-11.2 1.4 56.3 56.3 0 0 0-11.4 5l-1.5.7-9-22 1.2-.6c10.7-5.6 23.3-8.5 37.5-8.5 12 0 21.6 2.7 28.4 8s11.4 14.4 13.5 26.7c3 16.8 7 27.7 11.8 32.4l.5.6v23zm-98.8-3zm.7 0h95v-18.7c-5-5.4-9-16.4-12.2-33.6-2-11.5-6-20-12.3-24.8S225 86 213.7 86c-13.2 0-25 2.5-35 7.4l7 16.3a56.8 56.8 0 0 1 10.5-4.4 44.4 44.4 0 0 1 12-1.5c6.6 0 11.7 1.7 15 5s6 9 7.6 17.2c2.4 12 5.8 20 10 24l.6.3v2.4h-71.7v17.8z"/><path class="cls-2" d="M368.3 72.8a19.8 19.8 0 0 1-.7 5.5 8.3 8.3 0 0 1-6 6 19.7 19.7 0 0 1-5.5.7q-6 0-9-3t-3-9.2v-19h6.2v19q0 6.6 6 6.6a8.8 8.8 0 0 0 2.6-.3 4 4 0 0 0 2-1 4.7 4.7 0 0 0 1-2 12 12 0 0 0 .2-3V54h6.3v18.8z"/><text class="cls-3" transform="rotate(-22.16 654.642 -1010.578)">و</text><text class="cls-4" transform="rotate(-12.92 952.616 -1776.52)">و</text><path class="cls-2" d="M483.5 125.5a26.7 26.7 0 0 1-1.3 8.5 45 45 0 0 1-3.2 7.4l-18 32.2-4 6.8-3.5 6-1.2 1.8a16.4 16.4 0 0 1-1.3 1.6l-1 .7a18 18 0 0 1-5.6 2.7 6.7 6.7 0 0 1-1.8.2 11.8 11.8 0 0 1-6-2q-4.8-3-4.8-6.6v-3a10.7 10.7 0 0 1 .7-3.2l.8-2a7 7 0 0 1 1-1.7l2.8-5 5.6-9.4h-.4q-11.5-2.2-18.2-8.5a35 35 0 0 1-5.8-7 38.5 38.5 0 0 1-3.8-8.8 35.4 35.4 0 0 1-.4-19.3A34 34 0 0 1 426.4 98 35.5 35.5 0 0 1 473 101a33 33 0 0 1 10.5 24.5zm-24.5.2a11.5 11.5 0 0 0-11.4-11.4 11 11 0 0 0-8.2 3.4 11.4 11.4 0 0 0 0 16 11.8 11.8 0 0 0 16.4 0 11 11 0 0 0 3.2-8z"/><path class="cls-5" d="M35.3 256.8a9.2 9.2 0 0 1-2.8 4.8q-3 2.4-8.7 2.2v-4a3.4 3.4 0 0 0 .8 0 5.4 5.4 0 0 0 4-1.7 5.6 5.6 0 0 0 1.2-4V239h5.7v12.8H40v5h-4.7z"/><path class="cls-5" d="M46 238.8H53v10q0 2.2-1 2.8H57v5H38.7v-5h3.6q3.6.3 4-3v-9.8zm-3.4-6.7h5v4.2h-5zm8.3 0h5v4.2h-5v-4z"/><path class="cls-5" d="M82 251.7h2.5q3 0 3-2.5v-10.4h6v11.7A5.6 5.6 0 0 1 90 256a8.2 8.2 0 0 1-3 .7H76a1.6 1.6 0 0 1-.4 0h-21v-5h6.4q3 0 3-2.5v-10.4h6v11.7a11 11 0 0 1-.2 1.2h3.2q3 0 3-2.5v-10.4h6v11.7a11 11 0 0 1-.2 1.2zM72.2 232h5v4h-5v-4zm4-5.5h5v4h-5v-4zm4.3 5.5h5v4h-5v-4zM98 228.5h6.2V247q0 4 4 4.6h3.7v5h-7a6.3 6.3 0 0 1-6-3.5 9.3 9.3 0 0 1-1-3.6v-21z"/><path class="cls-5" d="M120 238.8h6v11.7a5.6 5.6 0 0 1-3.3 5.5 8.4 8.4 0 0 1-3 .7h-9v-5h6.3q3 0 3-2.5v-10.4zm-4.5 20.8h5v4h-5zM187 251a14.3 14.3 0 0 1-2.8 6.8q-4.5 6-14.3 6.2-8.5-.5-13-5.6a19.6 19.6 0 0 1-4.2-12v-3h5.7v.8a19.8 19.8 0 0 0 1.3 7.5 11.4 11.4 0 0 0 10.5 6.5q4.5-.2 7-2a8.8 8.8 0 0 0 3.3-4.6H166v-5.4a17.2 17.2 0 0 1 .2-2.2 11 11 0 0 1 3.6-7 11.7 11.7 0 0 1 4-2.5 17.4 17.4 0 0 1 7.2-1 16.5 16.5 0 0 1 1.7 0v4.7h-1.5a20 20 0 0 0-3.5.3 8 8 0 0 0-5 3.4 6.4 6.4 0 0 0-1 3.4 4.5 4.5 0 0 0 0 1H187v4.7zM196.3 239a16.5 16.5 0 0 1 1.7-.2 22 22 0 0 1 7 1 13.3 13.3 0 0 1 4.7 2.8 11.2 11.2 0 0 1 2.3 3.4 14 14 0 0 1 1 3.2 17 17 0 0 1 0 2.2v5.3h-21.7v-5h16a5 5 0 0 0 0-1.2 6.6 6.6 0 0 0-1-3.5 8 8 0 0 0-5-3.4 18 18 0 0 0-3.5-.3h-1.5V239zM222.3 238.8h5.7v14.7a10.6 10.6 0 0 1 0 1 9.2 9.2 0 0 1-3 7q-2.8 2.3-7.7 2.3h-1v-4a3.4 3.4 0 0 0 .8 0 5.4 5.4 0 0 0 4-1.6 5.6 5.6 0 0 0 1.3-4v-15.4zM246.6 256a12.5 12.5 0 0 1-4.8.8 9.6 9.6 0 0 1-7.7-3.2 9 9 0 0 1-2-5.5 10.5 10.5 0 0 1 .7-3.3 10 10 0 0 1 1.8-3.2q2.5-3 7.7-3h.3a10.8 10.8 0 0 1 8 3.4 10 10 0 0 1 2 6 5 5 0 0 1 0 .6v3h3.5v5h-3.8a9.6 9.6 0 0 1-3 5q-2.7 2.2-7.6 2.2h-1v-4a3.6 3.6 0 0 0 .8 0 5.4 5.4 0 0 0 4-1.7 4.5 4.5 0 0 0 1-2zm-6.8-12.8a4.3 4.3 0 0 0-1.4 1.6 5.7 5.7 0 0 0-.6 2.6 6.7 6.7 0 0 0 .5 2.5 4 4 0 0 0 4 2.5 5.3 5.3 0 0 0 1.7-.3 3.8 3.8 0 0 0 1.6-1.3 5.2 5.2 0 0 0 1.2-3.4 6.5 6.5 0 0 0-.2-1.7q-1-3.6-4-3.7a3 3 0 0 0-.5 0 4.2 4.2 0 0 0-2.2 1z"/><path class="cls-5" d="M253.6 251.6h26.6q.7-6-4-9-3.4-1.5-10.2-1.3h-6.3l8.8-12.7h5.8l-4.8 7.6a21.5 21.5 0 0 1 2.2 0 16.3 16.3 0 0 1 10.7 4.2 15 15 0 0 1 3.6 10v6.2h-32.2zM350 251.6v5.2a16.8 16.8 0 0 1-6-1q-.8-.3-3.2-2-.2 4-4.7 7a17 17 0 0 1-7 2.7 23.6 23.6 0 0 1-5 .3 18 18 0 0 1-5.2-1 14 14 0 0 1-7-5.5 17.8 17.8 0 0 1-2.7-10q0-1 .2-1.8t0-.8h5.7a12 12 0 0 0-.3 2.2 14.6 14.6 0 0 0 1.6 6.5q2.8 5.2 9.4 5.2h1.7a13.4 13.4 0 0 0 5.7-2 5 5 0 0 0 2.7-3.3 6.8 6.8 0 0 0 0-1 5 5 0 0 0-1-3.3 3.8 3.8 0 0 0-3-1.4h-1v-5a7 7 0 0 1 .8 0 18 18 0 0 1 6 1.4 9.4 9.4 0 0 1 3.2 2 29.4 29.4 0 0 1 2 2.3 9.4 9.4 0 0 0 2 2 7.8 7.8 0 0 0 4.3 1.4h1z"/><path class="cls-5" d="M347.5 251.6H374q.7-6-4-9-3.3-1.5-10-1.4h-6.4l8.7-12.6h6l-5 7.5a21.5 21.5 0 0 1 2.3.3 16.3 16.3 0 0 1 10.6 4q3.8 4.4 3.7 11.3h5.4v5h-37.8z"/><path class="cls-5" d="M393.6 238.8h6.7v10q0 2.2-1 2.8h5.3v5H383v-5h6.7q3.5.3 4-3v-9.8zm-3.6 1a6.2 6.2 0 0 1-2-.8 7 7 0 0 1-1-.8 8.6 8.6 0 0 1-1.8-3 14.4 14.4 0 0 1-.8-4.6 10.6 10.6 0 0 1 0-1.2h3v1a11 11 0 0 0 .2 2.3 5 5 0 0 0 2.2 3.3h.2a5 5 0 0 0 2.4-3.3 11 11 0 0 0 .2-2.3v-1h3a10.6 10.6 0 0 1 0 1 14.4 14.4 0 0 1-.8 4.8 8.6 8.6 0 0 1-1.7 3 7 7 0 0 1-1 .8 6.2 6.2 0 0 1-2 .7zm-2 19.7h5v4h-5zm8.3 0h5v4h-5z"/><path class="cls-5" d="M410.2 238.8h6.7v10q0 2.2-1 2.8h5.2v5h-18.5v-5h3.6q3.6.3 4-3v-9.8zm-.8 20.7h5v4h-5z"/><path class="cls-5" d="M431.4 238.8h5.8v11.7a5.6 5.6 0 0 1-3 5.5 8.4 8.4 0 0 1-3.3.7h-12v-5h9.4q2.8 0 3-2.5v-2.7zm-4.3 1a6.2 6.2 0 0 1-2-.8 7 7 0 0 1-1-.8 8.6 8.6 0 0 1-1.7-3 14.4 14.4 0 0 1-.7-4.6 10.6 10.6 0 0 1 0-1.2h3v1a11 11 0 0 0 .2 2.3 5 5 0 0 0 2.2 3.3h.2a5 5 0 0 0 2.3-3.3 11 11 0 0 0 .3-2.3v-1h3a10.6 10.6 0 0 1 0 1 14.4 14.4 0 0 1-.8 4.8 8.6 8.6 0 0 1-1.7 3 7 7 0 0 1-1 .8 6.2 6.2 0 0 1-2.2.7zm-3.7 19.7h5v4h-5v-4zm8.3 0h5v4h-5v-4zM455 256a12.5 12.5 0 0 1-4.7.8 9.6 9.6 0 0 1-7.6-3.2 9 9 0 0 1-2-5.5 10.5 10.5 0 0 1 .5-3.3 10 10 0 0 1 2-3.2q2.4-3 7.6-3h.3a10.8 10.8 0 0 1 8 3.4 10 10 0 0 1 2 6 5 5 0 0 1 0 .6v5a10.6 10.6 0 0 1 0 1 9.2 9.2 0 0 1-3 7q-2.8 2.2-7.8 2.2h-1v-4a3.6 3.6 0 0 0 1 0 5.4 5.4 0 0 0 4-1.7 4.5 4.5 0 0 0 1-2zm-6.6-12.8a4.3 4.3 0 0 0-1.4 1.6 5.7 5.7 0 0 0-.7 2.6 6.7 6.7 0 0 0 .5 2.5 4 4 0 0 0 4.2 2.5 5.3 5.3 0 0 0 1.5-.3 3.8 3.8 0 0 0 1.7-1.3 5.2 5.2 0 0 0 1-3.4 6.5 6.5 0 0 0 0-1.7q-1-3.6-4-3.7a3 3 0 0 0-.6 0 4.2 4.2 0 0 0-2.2 1z"/><circle class="cls-1" cx="159.2" cy="200.4" r="9.7"/><path class="cls-1" d="M159.2 211.2a10.7 10.7 0 1 1 10.8-10.8 10.8 10.8 0 0 1-10.8 10.8zm0-19.5a8.7 8.7 0 1 0 8.8 8.7 8.8 8.8 0 0 0-8.8-8.7z"/><circle class="cls-1" cx="54.2" cy="122.4" r="9.7"/><path class="cls-1" d="M54.2 133.2A10.7 10.7 0 1 1 65 122.4a10.8 10.8 0 0 1-10.8 10.8zm0-19.5a8.7 8.7 0 1 0 8.8 8.7 8.8 8.8 0 0 0-8.8-8.7z"/><circle class="cls-1" cx="184.2" cy="200.4" r="9.7"/><path class="cls-1" d="M184.2 211.2a10.7 10.7 0 1 1 10.8-10.8 10.8 10.8 0 0 1-10.8 10.8zm0-19.5a8.7 8.7 0 1 0 8.8 8.7 8.8 8.8 0 0 0-8.8-8.7z"/><circle class="cls-1" cx="209.2" cy="200.4" r="9.7"/><path class="cls-1" d="M209.2 211.2a10.7 10.7 0 1 1 10.8-10.8 10.8 10.8 0 0 1-10.8 10.8zm0-19.5a8.7 8.7 0 1 0 8.8 8.7 8.8 8.8 0 0 0-8.8-8.7z"/><circle class="cls-1" cx="354.2" cy="200.4" r="9.7"/><path class="cls-1" d="M354.2 211.2a10.7 10.7 0 1 1 10.8-10.8 10.8 10.8 0 0 1-10.8 10.8zm0-19.5a8.7 8.7 0 1 0 8.8 8.7 8.8 8.8 0 0 0-8.8-8.7z"/><circle class="cls-1" cx="286.2" cy="200.4" r="9.7"/><path class="cls-1" d="M286.2 211.2a10.7 10.7 0 1 1 10.8-10.8 10.8 10.8 0 0 1-10.8 10.8zm0-19.5a8.7 8.7 0 1 0 8.8 8.7 8.8 8.8 0 0 0-8.8-8.7z"/><circle class="cls-1" cx="378.2" cy="200.4" r="9.7"/><path class="cls-1" d="M378.2 211.2a10.7 10.7 0 1 1 10.8-10.8 10.8 10.8 0 0 1-10.8 10.8zm0-19.5a8.7 8.7 0 1 0 8.8 8.7 8.8 8.8 0 0 0-8.8-8.7z"/></svg>