<svg xmlns="http://www.w3.org/2000/svg" viewBox="0 0 486.47 213.18"><defs><style>.cls-1,.cls-2,.cls-3{fill:#2f5f8a;}.cls-2,.cls-3{stroke:#2f5f8a;}.cls-2,.cls-3,.cls-4,.cls-5{stroke-miterlimit:10;}.cls-2{stroke-width:3px;}.cls-3,.cls-4,.cls-5{stroke-width:2px;}.cls-4{fill:#e7aa21;}.cls-4,.cls-5{stroke:#fff;}.cls-5{fill:#75a942;}.cls-6{fill:#333;}</style></defs><title>webchin-meko-logo-svg</title><g id="Layer_2" data-name="Layer 2"><g id="Dots"><path class="cls-1" d="M57.16,148.47c-15.3,0-28.54-5.84-39.36-17.37C6.65,119.37,1,104.85,1,88V38.59H22.66V85.7c0,11,2.87,20.63,8.52,28.66,6.6,8.95,15.34,13.5,26,13.5S76.36,123.3,83,114.34c5.52-7.89,8.33-17.53,8.33-28.64V38.59H113V88a59,59,0,0,1-.85,9.79h28.17v21.84H104.73a55.74,55.74,0,0,1-19.56,20.73A51.83,51.83,0,0,1,57.16,148.47Z"/><path class="cls-1" d="M112,39.59V88a58.52,58.52,0,0,1-1,10.79h28.36v19.84H104.14a54.64,54.64,0,0,1-19.49,20.88,50.63,50.63,0,0,1-27.49,8q-22.62,0-38.63-17.05Q2,113,2,88V39.59H21.66V85.7q0,16.88,8.7,29.23,10.26,13.92,26.8,13.92,16.35,0,26.62-13.92,8.52-12.18,8.53-29.23V39.59H112m2-2H90.31V85.7c0,10.9-2.75,20.35-8.16,28.09-6.48,8.78-14.66,13.07-25,13.07S38.48,122.56,32,113.74c-5.51-7.82-8.31-17.26-8.31-28V37.59H0V88c0,17.16,5.75,31.9,17.08,43.83,11,11.72,24.49,17.67,40.08,17.67a52.82,52.82,0,0,0,28.56-8.31,56.58,56.58,0,0,0,19.6-20.57h36V96.75h-28A59.33,59.33,0,0,0,114,88V37.59Z"/><path class="cls-1" d="M266.52,119.58V97.75h19.1c5.33,0,8.86-1.76,10.77-5.38,1.31-2.4,2-6.69,2-12.76v-41h21.31v40c0,9.08-1.07,15.39-3.26,19.18h32.49v21.84Z"/><path class="cls-1" d="M318.68,39.59v39q0,15.31-4.18,20.18h33.41v19.84H267.52V98.75h18.1q8.52,0,11.66-5.92,2.09-3.83,2.09-13.22v-40h19.31m2-2H297.36v42c0,7.35-1,10.73-1.84,12.27-1.74,3.29-5,4.87-9.9,4.87h-20.1v23.84h84.39V96.75H318c1.77-4,2.64-10,2.64-18.18v-41Z"/><path class="cls-1" d="M342.73,119.58V97.75h17.36c6,0,9.76-1.69,11.45-5.18.85-2,1.29-6.11,1.29-12.09V38.59h21.49v48.5c0,21.56-10.11,32.49-30.06,32.49Z"/><path class="cls-1" d="M393.32,39.59v47.5q0,31.5-29.06,31.49H343.73V98.75h16.36q9.57,0,12.35-5.74,1.39-3.3,1.39-12.53V39.59h19.49m2-2H371.83V80.48c0,7.2-.66,10.34-1.22,11.7-1.52,3.07-5,4.57-10.53,4.57H341.73v23.84h22.53c10.22,0,18-2.87,23.26-8.52s7.8-14,7.8-25V37.59Z"/><path class="cls-2" d="M170.75,98.25q.94,0,.95.68v19.31q0,.85-.95.85H139a.75.75,0,0,1-.86-.85V98.92q0-.68.86-.68Z"/><path class="cls-2" d="M169,119.08a.75.75,0,0,1-.86-.85V98.92q0-.68.86-.68h70.9v-.17q-6.88-6.1-10.57-24.65Q227,61.74,222.27,57t-14.05-4.7a42.65,42.65,0,0,0-11.6,1.52,57.43,57.43,0,0,0-11.77,5l-7.91-19.06q15.73-8.3,36.78-8.3,17.62,0,27.41,7.79T254,65q4.55,25.83,12.29,33.28v20.83Z"/><path class="cls-3" d="M368.34,19.83a19.83,19.83,0,0,1-.69,5.58,8.28,8.28,0,0,1-5.94,6,19.7,19.7,0,0,1-5.57.69q-6.22,0-9.22-3t-3-9.23V1h6.31V20q0,6.5,5.91,6.5a8.78,8.78,0,0,0,2.71-.37A4.08,4.08,0,0,0,360.67,25a4.74,4.74,0,0,0,1-2,12,12,0,0,0,.32-3V1h6.33Z"/><path class="cls-4" d="M483.38,60.28a26.68,26.68,0,0,1,2,8.34,45,45,0,0,1-.19,8.06l-4.55,36.65-1.13,7.85-.87,6.94-.46,2a16.28,16.28,0,0,1-.6,2q-.13.23-.64,1a17.87,17.87,0,0,1-4.25,4.62,6.71,6.71,0,0,1-1.53.89,11.75,11.75,0,0,1-6.43.36q-5.4-.86-6.79-4.27-.5-1.24-1.06-2.72a10.68,10.68,0,0,1-.65-3.25l0-2.09a6.94,6.94,0,0,1,.31-2.11l.7-5.6,1.58-10.74-.42.08q-11.49,2.34-20-.95a35,35,0,0,1-8.05-4.38,38.56,38.56,0,0,1-6.87-6.67,35.44,35.44,0,0,1-7.65-17.8,33.88,33.88,0,0,1,4.4-21.85,35.49,35.49,0,0,1,44.25-15.09A33.13,33.13,0,0,1,483.38,60.28Zm-22.6,9.38a11.48,11.48,0,0,0-14.88-6.2,11.13,11.13,0,0,0-6.32,6.18,11.39,11.39,0,0,0,6,14.9,11.85,11.85,0,0,0,15.17-6.13A10.93,10.93,0,0,0,460.78,69.66Z"/><path class="cls-5" d="M484,65.43a26.64,26.64,0,0,1,.63,8.55,44.92,44.92,0,0,1-1.48,7.92l-10.37,35.45-2.38,7.57-2,6.71-.77,1.89a16.63,16.63,0,0,1-.91,1.84q-.17.21-.79.87a17.87,17.87,0,0,1-4.94,3.87,6.7,6.7,0,0,1-1.65.64,11.76,11.76,0,0,1-6.41-.67q-5.19-1.72-6-5.3c-.2-.87-.41-1.82-.61-2.86a10.7,10.7,0,0,1-.12-3.31l.38-2.06a6.82,6.82,0,0,1,.65-2l1.58-5.42,3.28-10.35h-.43q-11.72.46-19.62-4.15A35.09,35.09,0,0,1,424.78,99a38.58,38.58,0,0,1-5.7-7.69,35.42,35.42,0,0,1-4.7-18.8,33.88,33.88,0,0,1,7.85-20.86,35.49,35.49,0,0,1,46.1-7.79A33.13,33.13,0,0,1,484,65.43Zm-23.81,5.63a11.47,11.47,0,0,0-13.69-8.51,11.13,11.13,0,0,0-7.23,5.08,11.39,11.39,0,0,0,3.55,15.68,11.85,11.85,0,0,0,16-3.62A10.92,10.92,0,0,0,460.15,71.06Z"/><path class="cls-3" d="M483.48,72.57A26.66,26.66,0,0,1,482.18,81,45,45,0,0,1,479,88.43l-18,32.23-4,6.85-3.42,6.1-1.17,1.67a16.44,16.44,0,0,1-1.29,1.59q-.21.17-1,.67a17.89,17.89,0,0,1-5.68,2.67,6.71,6.71,0,0,1-1.75.25,11.75,11.75,0,0,1-6.09-2.09q-4.68-2.84-4.68-6.51,0-1.34,0-2.92a10.67,10.67,0,0,1,.63-3.26l.83-1.92a6.9,6.9,0,0,1,1.09-1.84l2.75-4.93,5.51-9.35-.42-.08q-11.52-2.17-18.2-8.43a35.06,35.06,0,0,1-5.8-7.1,38.5,38.5,0,0,1-3.84-8.77,35.4,35.4,0,0,1-.37-19.37,33.88,33.88,0,0,1,12.32-18.58A35.5,35.5,0,0,1,473.08,48,33.13,33.13,0,0,1,483.48,72.57ZM459,72.73a11.48,11.48,0,0,0-11.44-11.36,11.13,11.13,0,0,0-8.18,3.34,11.39,11.39,0,0,0,0,16.07,11.85,11.85,0,0,0,16.37,0A10.92,10.92,0,0,0,459,72.73Z"/><circle class="cls-3" cx="159.24" cy="147.47" r="9.74"/><circle class="cls-3" cx="54.24" cy="69.47" r="9.74"/><circle class="cls-3" cx="184.24" cy="147.47" r="9.74"/><circle class="cls-3" cx="209.24" cy="147.47" r="9.74"/><circle class="cls-3" cx="354.24" cy="147.47" r="9.74"/><circle class="cls-3" cx="286.24" cy="147.47" r="9.74"/><circle class="cls-3" cx="378.24" cy="147.47" r="9.74"/><path class="cls-6" d="M86.6,207.46a7.2,7.2,0,0,1-2.23,3.79Q82,213.16,77.52,213l0-3.1a2.63,2.63,0,0,0,.6.07,4.22,4.22,0,0,0,3.15-1.36,4.42,4.42,0,0,0,.94-3.1V193.43h4.48v10h3.45v4Z"/><path class="cls-6" d="M95.07,193.4h5.26v7.74q0,1.84-.8,2.3l4.16,0v4H89.17v-4H92q2.82.21,3.05-2.39Zm-2.73-5.28h3.88v3.22h-3.9Zm6.48,0h3.9v3.22h-3.9Z"/><path class="cls-6" d="M111.63,207.46h-9.37v-4h9.37Z"/><path class="cls-6" d="M130.79,203.46h2q2.25.07,2.34-1.91V193.4h4.59v9.16a4.38,4.38,0,0,1-2.48,4.3,6.42,6.42,0,0,1-2.48.6h-8.59v0l-.25,0h-8.82v-.07l-.6.07h-7v-4h5q2.25.07,2.34-1.91V193.4h4.62v9.16a8.59,8.59,0,0,1,0,.9h2.53q2.23.07,2.34-1.91V193.4h4.57v9.16A8.59,8.59,0,0,1,130.79,203.46ZM123.1,188H127v3.22h-3.9Zm3.19-4.27h3.88v3.19h-3.88ZM129.6,188h3.9v3.22h-3.9Z"/><path class="cls-6" d="M143.4,185.29h4.82V199.9a3,3,0,0,0,3,3.54h3v4h-5.33a4.91,4.91,0,0,1-4.82-2.87,7.26,7.26,0,0,1-.69-2.87Z"/><path class="cls-6" d="M160.6,193.4h4.62v9.16a4.38,4.38,0,0,1-2.48,4.3,6.56,6.56,0,0,1-2.48.6h-7v-4h5q2.25.07,2.34-1.91V193.4Zm-3.51,16.26H161v3.22h-3.9Z"/><path class="cls-6" d="M213,203a11.19,11.19,0,0,1-2.14,5.31q-3.51,4.71-11.16,4.92-6.59-.41-10.06-4.46a15.36,15.36,0,0,1-3.35-9.33v-2.3h4.48v.48a15.5,15.5,0,0,0,1,5.9,9,9,0,0,0,8.22,5.12,9.13,9.13,0,0,0,5.35-1.65,6.88,6.88,0,0,0,2.73-3.56H196.55v-4.2a13.46,13.46,0,0,1,.21-1.75,8.65,8.65,0,0,1,2.87-5.54,9.19,9.19,0,0,1,3.22-1.93,13.68,13.68,0,0,1,5.56-.9,13.08,13.08,0,0,1,1.33.07v3.72l-1.17,0a15.64,15.64,0,0,0-2.73.21,6.21,6.21,0,0,0-4,2.71,5,5,0,0,0-.8,2.76,3.52,3.52,0,0,0,.09.85H213Z"/><path class="cls-6" d="M220.42,193.47a12.85,12.85,0,0,1,1.33-.07,17.33,17.33,0,0,1,5.56.87,10.47,10.47,0,0,1,3.61,2.09,8.82,8.82,0,0,1,1.81,2.64,11.06,11.06,0,0,1,.67,2.5,13.41,13.41,0,0,1,.21,1.77v4.18H216.44v-4H229a3.83,3.83,0,0,0,.09-.87,5.15,5.15,0,0,0-.78-2.76,6.2,6.2,0,0,0-4-2.69,14.1,14.1,0,0,0-2.73-.23c-.37,0-.76,0-1.17,0Z"/><path class="cls-6" d="M240.74,193.43h4.48v11.48a8.39,8.39,0,0,1,0,.87,7.2,7.2,0,0,1-2.41,5.47,9.55,9.55,0,0,1-6.06,1.72H236l0-3.1a2.63,2.63,0,0,0,.6.07,4.22,4.22,0,0,0,3.15-1.36,4.42,4.42,0,0,0,.94-3.1Z"/><path class="cls-6" d="M259.78,206.79a9.83,9.83,0,0,1-3.77.69,7.49,7.49,0,0,1-6-2.5,7.09,7.09,0,0,1-1.54-4.34,8.2,8.2,0,0,1,.46-2.64,7.85,7.85,0,0,1,1.45-2.53q1.93-2.3,6-2.41h.25a8.51,8.51,0,0,1,6.16,2.73,7.81,7.81,0,0,1,1.65,4.85,4,4,0,0,1,0,.44l0,2.37h2.83l0,4h-3a7.56,7.56,0,0,1-2.25,3.79,9.55,9.55,0,0,1-6.06,1.72h-.78l0-3.1a2.84,2.84,0,0,0,.6.07,4.22,4.22,0,0,0,3.15-1.36A3.49,3.49,0,0,0,259.78,206.79Zm-5.28-10a3.36,3.36,0,0,0-1.1,1.24,4.47,4.47,0,0,0-.48,2.07,5.28,5.28,0,0,0,.39,2,3.2,3.2,0,0,0,3.24,2,4.11,4.11,0,0,0,1.24-.16,3,3,0,0,0,1.26-1,4.11,4.11,0,0,0,.92-2.64,5.1,5.1,0,0,0-.18-1.31q-.67-2.76-3.08-2.8a2.32,2.32,0,0,0-.46,0A3.33,3.33,0,0,0,254.5,196.82Z"/><path class="cls-6" d="M265.32,203.44H286.2q.48-4.82-3.24-7-2.57-1.26-7.92-1.13l-4.94,0,6.85-9.88h4.59l-3.79,5.88a17,17,0,0,1,1.77.14,12.79,12.79,0,0,1,8.34,3.19,11.77,11.77,0,0,1,2.83,7.95v.3l0,4.55H265.41Z"/><path class="cls-6" d="M340.8,203.44v4a13.2,13.2,0,0,1-4.69-.69q-.53-.3-2.41-1.61-.18,3-3.7,5.58a13.4,13.4,0,0,1-5.58,2,18.55,18.55,0,0,1-3.86.23,14,14,0,0,1-4.09-.87,10.86,10.86,0,0,1-5.4-4.2,14,14,0,0,1-2.2-7.9q0-.67.06-1.37T309,198h4.41a9.39,9.39,0,0,0-.16,1.75,11.48,11.48,0,0,0,1.26,5.19q2.2,4,7.33,4,.64,0,1.35-.07a10.48,10.48,0,0,0,4.46-1.38,4,4,0,0,0,2.07-2.71,5.27,5.27,0,0,0,.07-.83,3.86,3.86,0,0,0-.83-2.53,3,3,0,0,0-2.46-1.15h-.85v-3.84a5.53,5.53,0,0,1,.74,0,14.23,14.23,0,0,1,4.78,1,7.41,7.41,0,0,1,2.43,1.56q.39.39,1.47,1.79a7.39,7.39,0,0,0,1.61,1.58,6.14,6.14,0,0,0,3.42,1.15C340.25,203.49,340.49,203.47,340.8,203.44Z"/><path class="cls-6" d="M338.91,203.44h20.88q.48-4.82-3.24-7-2.57-1.26-7.92-1.13l-4.94,0,6.84-9.88h4.59l-3.79,5.88a17,17,0,0,1,1.77.14,12.79,12.79,0,0,1,8.34,3.19,12.62,12.62,0,0,1,2.87,8.77h4.34l0,4H339Z"/><path class="cls-6" d="M375,193.4h5.26v7.74q0,1.84-.8,2.3l4.16,0v4H366.84v-4H372q2.8.21,3.06-2.39Zm-2.83.71a4.9,4.9,0,0,1-1.61-.57,5.46,5.46,0,0,1-.78-.64,6.76,6.76,0,0,1-1.35-2.37,11.26,11.26,0,0,1-.57-3.63,8.28,8.28,0,0,1,0-.87h2.27c0,.28,0,.53,0,.76a8.74,8.74,0,0,0,.16,1.79,4,4,0,0,0,1.75,2.6l.11.07.11-.07a4,4,0,0,0,1.75-2.6,8.74,8.74,0,0,0,.16-1.79c0-.23,0-.48,0-.76h2.27a8.49,8.49,0,0,1,0,.87,11.26,11.26,0,0,1-.57,3.63,6.78,6.78,0,0,1-1.35,2.37,5.46,5.46,0,0,1-.78.64A4.9,4.9,0,0,1,372.22,194.12Zm-1.49,15.5h3.88v3.22H370.7Zm6.5,0h3.88v3.22h-3.9Z"/><path class="cls-6" d="M388.09,193.4h5.26v7.74q0,1.84-.8,2.3l4.16,0v4H382.19v-4H385q2.83.21,3.06-2.39Zm-.67,16.22h3.88v3.22h-3.9Z"/><path class="cls-6" d="M404.7,193.4h4.59v9.16a4.37,4.37,0,0,1-2.48,4.3,6.56,6.56,0,0,1-2.48.6h-9.26v-4h7.26q2.25.07,2.34-1.91V199.4Zm-3.33.71a4.89,4.89,0,0,1-1.61-.57,5.46,5.46,0,0,1-.78-.64,6.76,6.76,0,0,1-1.35-2.37,11.26,11.26,0,0,1-.57-3.63,8.28,8.28,0,0,1,0-.87h2.27c0,.28,0,.53,0,.76a8.74,8.74,0,0,0,.16,1.79,4,4,0,0,0,1.75,2.6l.11.07.11-.07a4,4,0,0,0,1.75-2.6,8.79,8.79,0,0,0,.16-1.79c0-.23,0-.48,0-.76h2.27a8.49,8.49,0,0,1,0,.87,11.26,11.26,0,0,1-.57,3.63,6.77,6.77,0,0,1-1.35,2.37,5.46,5.46,0,0,1-.78.64A4.9,4.9,0,0,1,401.37,194.12Zm-3,15.5h3.91v3.22h-3.91Zm6.5,0h3.91v3.22h-3.91Z"/><path class="cls-6" d="M423.3,206.79a9.83,9.83,0,0,1-3.77.69,7.49,7.49,0,0,1-6-2.5,7.09,7.09,0,0,1-1.54-4.34,8.19,8.19,0,0,1,.46-2.64,7.85,7.85,0,0,1,1.45-2.53q1.93-2.3,6-2.41h.25a8.5,8.5,0,0,1,6.16,2.73,7.81,7.81,0,0,1,1.65,4.85,4.13,4.13,0,0,1,0,.44l0,3.81a8.28,8.28,0,0,1,0,.87,7.19,7.19,0,0,1-2.43,5.49,9.55,9.55,0,0,1-6.06,1.72h-.78l0-3.1a2.85,2.85,0,0,0,.6.07,4.22,4.22,0,0,0,3.15-1.36A3.48,3.48,0,0,0,423.3,206.79Zm-5.28-10a3.36,3.36,0,0,0-1.1,1.24,4.47,4.47,0,0,0-.48,2.07,5.26,5.26,0,0,0,.39,2,3.2,3.2,0,0,0,3.24,2,4.11,4.11,0,0,0,1.24-.16,3,3,0,0,0,1.26-1,4.11,4.11,0,0,0,.92-2.64,5.08,5.08,0,0,0-.18-1.31q-.67-2.76-3.08-2.8a2.33,2.33,0,0,0-.46,0A3.33,3.33,0,0,0,418,196.82Z"/></g></g></svg>